# xmcd
#
# Track frame offsets: 
#        150
#        17001
#        33366
#        50089
#        67427
#        86202
#        107149
#        122886
#        138343
#        155074
#        172734
#        188471
#
# Disc length: 2741 seconds
#
# Revision: 1
# Processed by: cddbd v1.5.2PL0 Copyright (c) Steve Scherf et al.
# Submitted via: ExactAudioCopy v0.99pb5
#
DISCID=a70ab30c
DTITLE=Luis Vargas - Inolvidable
DYEAR=2005
DGENRE=Latin
TTITLE0=Y Tú Qué Me Has Dado
TTITLE1=Así Es El Amor
TTITLE2=Te Hice Olvidar
TTITLE3=La Voy A Llorar
TTITLE4=Inolvidable
TTITLE5=Ven Que Te Amo
TTITLE6=Qué Me Hiciste
TTITLE7=Maldita Pasión
TTITLE8=Amándote
TTITLE9=Díle La Verdad
TTITLE10=Las Mujeres Celosas
TTITLE11=La Pesadilla
EXTD=
EXTT0=
EXTT1=
EXTT2=
EXTT3=
EXTT4=
EXTT5=
EXTT6=
EXTT7=
EXTT8=
EXTT9=
EXTT10=
EXTT11=
PLAYORDER=
